<svg width="1442" height="392" viewBox="0 0 1442 392" fill="none" xmlns="http://www.w3.org/2000/svg">
	<path d="M216.248 91.4328C227.755 84.7295 231.706 68.1163 225.098 54.2931C218.47 40.5014 203.788 34.7448 192.275 41.4355C180.788 48.1452 176.811 64.752 183.426 78.5626C190.047 92.3543 204.742 98.1361 216.248 91.4328Z" fill="black" />
	<path d="M287.458 10.8372C287.458 10.8372 254.067 94.1365 211.872 119.201C127.903 73.5531 92.4803 -0.000457764 92.4803 -0.000457764C88.1503 48.343 105.515 84.1131 131.35 106.205C131.35 106.205 250.173 208.106 244.29 253.603C272.151 214.209 255.317 157.206 255.317 157.206C245.256 122.08 262.872 107.398 269.929 92.407C271.147 90.1915 294.918 56.2961 287.458 10.8372Z" fill="black" />
	<path d="M311.711 324.403C308.858 325.324 301.896 324.813 282.695 335.462C263.494 346.104 241.452 357.673 216.627 360.697C191.802 363.727 176.59 347.909 176.59 347.909C165.324 332.444 194.302 343.528 210.827 347.107C237.236 353.249 248.894 338.756 248.894 338.756C264.239 323.21 251.981 321.903 242.26 325.318C232.546 328.72 220.976 326.429 200.885 319.612C180.794 312.795 166.58 310.106 166.58 310.106C154.322 309.002 143.023 311.861 133.044 316.627L133.038 316.62C133.038 316.62 85.4264 340.618 44.651 266.901L44.6447 266.92C33.0054 243.919 26.4283 217.945 26.4283 190.45C26.4283 136.849 51.4111 88.991 90.3119 57.8288C85.0982 43.065 82.1694 25.9974 83.0847 6.10837L83.0342 5.78012C83.0342 5.78012 79.8151 14.9262 77.6564 34.1841C30.5121 70.074 0 126.762 0 190.45C0 229.067 11.2164 265.095 30.5437 295.488L30.5311 295.5C30.5311 295.5 69.8169 361.05 139.444 383.502C202.943 402.324 245.599 385.187 271.485 364.901C290.919 349.689 311.724 336.863 311.724 336.863C328.621 325.324 314.552 323.475 311.711 324.403Z" fill="black" />
	<path d="M392.682 190.452C392.682 119.272 354.602 56.8144 297.738 22.3888C298.331 33.2896 297.378 43.4204 295.535 52.6296C338.324 83.5141 366.254 133.77 366.254 190.452C366.254 237.236 347.242 279.678 316.541 310.436C324.646 311.377 331.002 316.067 333.116 322.934C333.968 325.68 334.076 328.249 333.678 330.622C370.067 294.966 392.682 245.297 392.682 190.452Z" fill="black" />
	<path d="M225.839 314.991C231.305 289.87 236.859 271.457 240.249 261.207C233.539 269.741 221.086 287.578 207.729 309.992C215.361 312.511 221.237 314.171 225.839 314.991Z" fill="black" />
	<path d="M195.099 216.008C195.099 216.008 170.211 277.317 161.305 298.626C163.394 298.626 165.49 298.689 167.604 298.878L168.677 299.03C169.264 299.137 182.879 301.75 202.32 308.201C216.762 287.555 229.891 271.844 237.648 262.244C239.977 259.34 240.394 256.38 240.773 253.969C240.804 233 199.89 181.703 188.787 174.109C198.76 181.04 201.102 202.886 195.099 216.008Z" fill="black" />
	<path d="M483.129 247V125.74H538.513C547.572 125.74 555.254 127.288 561.561 130.384C567.868 133.48 572.626 137.895 575.837 143.628C579.162 149.361 580.825 156.299 580.825 164.44C580.825 172.581 579.162 179.576 575.837 185.424C572.626 191.157 567.868 195.572 561.561 198.668C555.254 201.764 547.572 203.312 538.513 203.312H509.789V247H483.129ZM509.789 182.672H534.041C540.921 182.672 546.138 181.124 549.693 178.028C553.362 174.932 555.197 170.403 555.197 164.44C555.197 158.477 553.362 154.005 549.693 151.024C546.138 148.043 540.921 146.552 534.041 146.552H509.789V182.672ZM589.132 247V162.548H614.588V183.188H612.868C614.244 176.308 617.225 171.033 621.812 167.364C626.513 163.58 632.705 161.401 640.388 160.828L647.956 160.312L649.504 182.156L634.884 183.704C628.348 184.277 623.475 186.169 620.264 189.38C617.168 192.591 615.62 197.235 615.62 203.312V247H589.132ZM694.795 248.892C685.736 248.892 677.824 247.115 671.059 243.56C664.408 240.005 659.248 234.903 655.579 228.252C651.91 221.601 650.075 213.747 650.075 204.688C650.075 195.629 651.91 187.832 655.579 181.296C659.248 174.76 664.408 169.715 671.059 166.16C677.824 162.605 685.736 160.828 694.795 160.828C703.854 160.828 711.708 162.605 718.359 166.16C725.124 169.715 730.342 174.817 734.011 181.468C737.795 188.004 739.687 195.744 739.687 204.688C739.687 213.747 737.795 221.601 734.011 228.252C730.342 234.903 725.124 240.005 718.359 243.56C711.708 247.115 703.854 248.892 694.795 248.892ZM694.795 229.456C700.414 229.456 704.943 227.449 708.383 223.436C711.823 219.308 713.543 213.059 713.543 204.688C713.543 196.317 711.823 190.183 708.383 186.284C704.943 182.271 700.414 180.264 694.795 180.264C689.291 180.264 684.819 182.271 681.379 186.284C677.939 190.183 676.219 196.317 676.219 204.688C676.219 213.059 677.939 219.308 681.379 223.436C684.819 227.449 689.291 229.456 694.795 229.456ZM791.78 279.852C783.754 279.852 776.186 278.992 769.076 277.272C761.967 275.552 755.775 272.857 750.5 269.188L757.552 251.472C760.648 253.307 763.974 254.912 767.528 256.288C771.198 257.664 774.924 258.696 778.708 259.384C782.492 260.072 786.104 260.416 789.544 260.416C796.883 260.416 802.387 258.753 806.056 255.428C809.726 252.103 811.56 247 811.56 240.12V227.048H813.108C811.388 232.323 807.834 236.623 802.444 239.948C797.055 243.273 791.092 244.936 784.556 244.936C776.988 244.936 770.395 243.216 764.776 239.776C759.158 236.221 754.8 231.291 751.704 224.984C748.608 218.563 747.06 211.167 747.06 202.796C747.06 194.311 748.608 186.972 751.704 180.78C754.8 174.473 759.158 169.6 764.776 166.16C770.395 162.605 776.988 160.828 784.556 160.828C791.322 160.828 797.284 162.491 802.444 165.816C807.719 169.027 811.216 173.269 812.936 178.544H811.56V162.548H836.844V237.196C836.844 246.599 835.124 254.453 831.684 260.76C828.244 267.181 823.142 271.94 816.376 275.036C809.726 278.247 801.527 279.852 791.78 279.852ZM792.296 225.5C798.03 225.5 802.616 223.493 806.056 219.48C809.611 215.467 811.388 209.905 811.388 202.796C811.388 195.687 809.611 190.183 806.056 186.284C802.616 182.271 798.03 180.264 792.296 180.264C786.448 180.264 781.804 182.271 778.364 186.284C774.924 190.183 773.204 195.687 773.204 202.796C773.204 209.905 774.924 215.467 778.364 219.48C781.804 223.493 786.448 225.5 792.296 225.5ZM852.709 247V162.548H878.165V183.188H876.445C877.821 176.308 880.802 171.033 885.389 167.364C890.09 163.58 896.282 161.401 903.965 160.828L911.533 160.312L913.081 182.156L898.461 183.704C891.925 184.277 887.051 186.169 883.841 189.38C880.745 192.591 879.197 197.235 879.197 203.312V247H852.709ZM961.64 248.892C951.664 248.892 943.064 247.115 935.84 243.56C928.73 239.891 923.226 234.788 919.328 228.252C915.544 221.601 913.652 213.804 913.652 204.86C913.652 196.145 915.486 188.52 919.156 181.984C922.825 175.333 927.928 170.173 934.464 166.504C941.114 162.72 948.625 160.828 956.996 160.828C965.252 160.828 972.361 162.605 978.324 166.16C984.286 169.6 988.873 174.531 992.084 180.952C995.409 187.373 997.072 194.999 997.072 203.828V210.364H934.98V196.948H978.324L975.572 199.356C975.572 192.361 974.024 187.087 970.928 183.532C967.946 179.863 963.646 178.028 958.028 178.028C953.785 178.028 950.173 179.003 947.192 180.952C944.21 182.901 941.917 185.711 940.312 189.38C938.706 193.049 937.904 197.464 937.904 202.624V204C937.904 209.848 938.764 214.664 940.484 218.448C942.318 222.117 945.013 224.869 948.568 226.704C952.237 228.539 956.766 229.456 962.156 229.456C966.742 229.456 971.386 228.768 976.088 227.392C980.789 226.016 985.032 223.895 988.816 221.028L995.696 238.4C991.453 241.611 986.236 244.191 980.044 246.14C973.966 247.975 967.832 248.892 961.64 248.892ZM1040.21 248.892C1035.28 248.892 1030.52 248.491 1025.94 247.688C1021.35 246.885 1017.17 245.796 1013.38 244.42C1009.6 243.044 1006.27 241.324 1003.41 239.26L1009.6 222.404C1012.46 224.124 1015.56 225.672 1018.89 227.048C1022.33 228.309 1025.88 229.284 1029.55 229.972C1033.22 230.66 1036.83 231.004 1040.39 231.004C1045.32 231.004 1048.87 230.259 1051.05 228.768C1053.34 227.163 1054.49 225.099 1054.49 222.576C1054.49 220.283 1053.74 218.563 1052.25 217.416C1050.76 216.269 1048.58 215.467 1045.72 215.008L1027.66 211.74C1020.55 210.479 1015.04 207.899 1011.15 204C1007.36 199.987 1005.47 194.884 1005.47 188.692C1005.47 182.959 1007.08 178.028 1010.29 173.9C1013.5 169.657 1017.91 166.447 1023.53 164.268C1029.26 161.975 1035.74 160.828 1042.97 160.828C1047.09 160.828 1051.11 161.172 1055.01 161.86C1058.9 162.548 1062.57 163.58 1066.01 164.956C1069.57 166.332 1072.72 168.167 1075.47 170.46L1068.94 187.144C1066.76 185.424 1064.18 183.933 1061.2 182.672C1058.22 181.411 1055.18 180.436 1052.08 179.748C1048.99 178.945 1046.06 178.544 1043.31 178.544C1038.15 178.544 1034.42 179.404 1032.13 181.124C1029.84 182.729 1028.69 184.793 1028.69 187.316C1028.69 189.265 1029.32 190.928 1030.58 192.304C1031.96 193.565 1034.02 194.425 1036.77 194.884L1054.83 198.152C1062.29 199.413 1067.96 201.936 1071.86 205.72C1075.76 209.389 1077.71 214.435 1077.71 220.856C1077.71 226.704 1076.16 231.749 1073.07 235.992C1069.97 240.12 1065.61 243.331 1059.99 245.624C1054.38 247.803 1047.78 248.892 1040.21 248.892ZM1120.57 248.892C1115.64 248.892 1110.88 248.491 1106.29 247.688C1101.71 246.885 1097.52 245.796 1093.74 244.42C1089.95 243.044 1086.63 241.324 1083.76 239.26L1089.95 222.404C1092.82 224.124 1095.92 225.672 1099.24 227.048C1102.68 228.309 1106.24 229.284 1109.91 229.972C1113.58 230.66 1117.19 231.004 1120.74 231.004C1125.67 231.004 1129.23 230.259 1131.41 228.768C1133.7 227.163 1134.85 225.099 1134.85 222.576C1134.85 220.283 1134.1 218.563 1132.61 217.416C1131.12 216.269 1128.94 215.467 1126.07 215.008L1108.01 211.74C1100.91 210.479 1095.4 207.899 1091.5 204C1087.72 199.987 1085.83 194.884 1085.83 188.692C1085.83 182.959 1087.43 178.028 1090.64 173.9C1093.85 169.657 1098.27 166.447 1103.89 164.268C1109.62 161.975 1116.1 160.828 1123.32 160.828C1127.45 160.828 1131.46 161.172 1135.36 161.86C1139.26 162.548 1142.93 163.58 1146.37 164.956C1149.93 166.332 1153.08 168.167 1155.83 170.46L1149.29 187.144C1147.12 185.424 1144.54 183.933 1141.55 182.672C1138.57 181.411 1135.53 180.436 1132.44 179.748C1129.34 178.945 1126.42 178.544 1123.67 178.544C1118.51 178.544 1114.78 179.404 1112.49 181.124C1110.19 182.729 1109.05 184.793 1109.05 187.316C1109.05 189.265 1109.68 190.928 1110.94 192.304C1112.31 193.565 1114.38 194.425 1117.13 194.884L1135.19 198.152C1142.64 199.413 1148.32 201.936 1152.22 205.72C1156.12 209.389 1158.07 214.435 1158.07 220.856C1158.07 226.704 1156.52 231.749 1153.42 235.992C1150.33 240.12 1145.97 243.331 1140.35 245.624C1134.73 247.803 1128.14 248.892 1120.57 248.892ZM1169.62 247V125.74H1227.93C1237.1 125.74 1244.9 127.345 1251.32 130.556C1257.74 133.652 1262.62 138.181 1265.94 144.144C1269.38 149.992 1271.1 157.101 1271.1 165.472C1271.1 173.613 1269.38 180.723 1265.94 186.8C1262.62 192.763 1257.74 197.349 1251.32 200.56C1244.9 203.656 1237.1 205.204 1227.93 205.204H1201.27V247H1169.62ZM1201.27 180.952H1222.43C1228.39 180.952 1232.98 179.691 1236.19 177.168C1239.4 174.531 1241 170.632 1241 165.472C1241 160.197 1239.4 156.299 1236.19 153.776C1232.98 151.253 1228.39 149.992 1222.43 149.992H1201.27V180.952ZM1277.81 247V162.376H1307.57V183.188H1305.85C1307 176.308 1309.86 170.976 1314.45 167.192C1319.15 163.293 1325.29 161.115 1332.85 160.656L1341.28 159.968L1343 185.768L1326.32 187.316C1320.24 187.889 1315.83 189.609 1313.07 192.476C1310.32 195.228 1308.95 199.356 1308.95 204.86V247H1277.81ZM1389.41 248.892C1380.01 248.892 1371.81 247.115 1364.81 243.56C1357.82 240.005 1352.37 234.903 1348.47 228.252C1344.57 221.601 1342.62 213.747 1342.62 204.688C1342.62 195.515 1344.57 187.66 1348.47 181.124C1352.37 174.473 1357.82 169.371 1364.81 165.816C1371.81 162.261 1380.01 160.484 1389.41 160.484C1398.81 160.484 1407.01 162.261 1414 165.816C1421 169.371 1426.39 174.473 1430.17 181.124C1434.07 187.66 1436.02 195.515 1436.02 204.688C1436.02 213.747 1434.07 221.601 1430.17 228.252C1426.39 234.903 1421 240.005 1414 243.56C1407.01 247.115 1398.81 248.892 1389.41 248.892ZM1389.41 226.36C1393.99 226.36 1397.78 224.64 1400.76 221.2C1403.74 217.76 1405.23 212.256 1405.23 204.688C1405.23 197.005 1403.74 191.501 1400.76 188.176C1397.78 184.736 1393.99 183.016 1389.41 183.016C1384.71 183.016 1380.87 184.736 1377.88 188.176C1374.9 191.501 1373.41 197.005 1373.41 204.688C1373.41 212.256 1374.9 217.76 1377.88 221.2C1380.87 224.64 1384.71 226.36 1389.41 226.36Z" fill="black" />
</svg>
